<?xml version="1.0" encoding="UTF-8" standalone="no"?>
<!DOCTYPE svg PUBLIC "-//W3C//DTD SVG 1.1//EN" "http://www.w3.org/Graphics/SVG/1.1/DTD/svg11.dtd">
<svg width="100%" height="100%" viewBox="0 0 975 975" version="1.1" xmlns="http://www.w3.org/2000/svg" xmlns:xlink="http://www.w3.org/1999/xlink" xml:space="preserve" xmlns:serif="http://www.serif.com/" style="fill-rule:evenodd;clip-rule:evenodd;stroke-linecap:round;stroke-linejoin:round;stroke-miterlimit:1.5;">
    <g transform="matrix(1.13881,0,0,1.13881,-65.6124,-1.02066)">
        <path d="M620.922,151.481C625.61,151.489 634.998,152.576 639.669,153.438C645.166,154.458 644.296,155.433 650.168,155.23C649.846,165.002 644.529,172.036 638.477,179.227C628.991,190.491 616.235,202.962 604.424,211.751C597,217.278 589.506,222.842 580.946,226.411L533.933,243.487C511.571,251.443 489.906,260.645 468.691,271.278C457.697,276.79 447.169,283.254 437.195,290.431C431.848,294.278 425.256,299.137 421.447,304.462L429.696,307.139C438.912,309.786 447.154,310.573 456.692,310.461C462.969,310.386 471.473,309.006 477.69,307.761C514.165,300.465 546.389,281.237 578.177,262.782C628.413,233.626 674.405,207.304 734.157,204.694L742.406,203.974C768.608,203.674 794.352,211.211 815.897,226.261C820.539,229.509 826.118,233.798 830.145,237.728L837.959,245.587C841.401,248.414 846.868,247.896 854.457,255.208C880.517,280.315 893.535,315.673 897.749,350.956L899.137,365.954C899.347,384.072 897.884,402.152 894.3,419.947C885.991,461.259 863.486,506.479 835.267,537.682C808.638,567.131 773.79,589.838 736.407,603.157C702.961,615.065 668.908,621.424 633.67,624.799L609.547,626.791L583.426,626.921C567.596,626.899 539.804,621.387 524.184,617.262C495.463,609.673 468.031,597.54 440.944,585.571L364.454,551.518L324.709,537.322L296.213,530.071L264.717,523.284L249.719,523.284C239.49,523.419 219.017,519.872 208.474,517.892C184.237,513.348 160.112,507.439 136.483,500.397C118.545,495.05 98.635,489.238 83.989,477.225C80.465,474.338 74.286,468.249 72.328,464.192C69.944,459.25 72.411,456.895 77.24,456.018L86.989,456.018C91.391,455.995 93.296,456.655 97.488,457.442L83.27,445.376C81.02,443.142 78.965,440.569 79.88,437.195C81.08,432.808 86.854,430.318 90.739,428.803C99.992,425.189 114.646,421.409 124.484,419.632L157.48,414.158L203.974,410.168L212.973,409.448L229.471,408.699L267.716,408.699L275.965,409.418C295.169,410.257 315.067,413.283 334.465,417.13C342.837,418.79 351.115,420.603 359.205,422.459C366.628,424.162 374.054,425.901 381.461,427.729C404.714,433.468 427.773,440.084 449.943,449.201L517.435,478.755L541.432,487.941L551.93,491.166C555.867,491.593 560.014,487.146 563.179,484.874C570.101,479.902 575.77,476.512 584.176,474.608L613.423,472.313C634.03,470.341 656.325,466.306 676.415,461.289C701.799,454.938 726.928,446.291 749.906,433.67C766.381,424.626 782.009,414.128 793.475,398.95C803.884,385.181 807.431,371.623 804.041,354.705C802.256,345.804 797.742,337.143 789.651,332.478C782.684,328.466 775.635,328.369 767.903,328.459L740.907,331.893C723.539,335.02 709.081,338.185 692.163,343.442L557.18,390.491C535.905,396.895 514.165,402.714 491.938,404.267L484.439,404.949C472.703,405.084 460.637,404.904 449.193,402.032C410.776,392.381 378.92,365.624 367.889,326.959C365.886,319.947 363.794,310.221 363.704,302.962C363.479,283.224 363.689,273.543 373.685,255.718L385.241,239.97L388.346,230.221C391.203,223.127 394.983,217.615 400.457,212.253C412.171,200.787 435.44,189.351 450.693,182.767C484.064,168.361 516.677,159.715 552.68,155.02L590.176,151.481L620.922,151.481Z" style="stroke:black;stroke-width:19.32px;"/>
        <path id="Selection" d="M97.488,457.442C93.296,456.655 91.391,455.995 86.989,456.018L82.49,456.018L77.24,456.018C72.411,456.895 69.944,459.25 72.328,464.192C74.286,468.249 80.465,474.338 83.989,477.225C98.635,489.238 118.545,495.05 136.483,500.397C160.112,507.439 184.237,513.348 208.474,517.892C219.017,519.872 239.49,523.419 249.719,523.284L264.717,523.284L296.213,530.071L324.709,537.322L364.454,551.518L440.944,585.571C468.031,597.54 495.463,609.673 524.184,617.262C539.804,621.387 567.596,626.899 583.426,626.921L609.547,626.791L633.67,624.799C668.908,621.424 702.961,615.065 736.407,603.157C773.79,589.838 808.638,567.131 835.267,537.682C863.486,506.479 885.991,461.259 894.3,419.947C897.884,402.152 899.347,384.072 899.137,365.954L897.749,350.956C893.535,315.673 880.517,280.315 854.457,255.208C846.868,247.896 841.401,248.414 837.959,245.587L830.145,237.728C826.118,233.798 820.539,229.509 815.897,226.261C794.352,211.211 768.608,203.674 742.406,203.974L734.157,204.694C674.405,207.304 628.413,233.626 578.177,262.782C546.389,281.237 514.165,300.465 477.69,307.761C471.473,309.006 462.969,310.386 456.692,310.461C447.154,310.573 438.912,309.786 429.696,307.139L421.447,304.462C425.256,299.137 431.848,294.278 437.195,290.431C447.169,283.254 457.697,276.79 468.691,271.278C489.906,260.645 511.571,251.443 533.933,243.487L580.946,226.411C589.506,222.842 597,217.278 604.424,211.751C616.235,202.962 628.991,190.491 638.477,179.227C644.529,172.036 649.846,165.002 650.168,155.23C644.296,155.433 645.166,154.458 639.669,153.438C634.997,152.576 625.609,151.488 620.922,151.481L590.176,151.481L552.68,155.02C516.677,159.715 484.064,168.361 450.693,182.767C435.44,189.351 412.171,200.787 400.457,212.253C394.983,217.615 391.203,223.127 388.346,230.221L385.241,239.97L373.685,255.718C363.689,273.543 363.479,283.224 363.704,302.962C363.794,310.221 365.886,319.947 367.889,326.959C378.92,365.624 410.776,392.381 449.193,402.032C460.637,404.904 472.703,405.084 484.439,404.949L491.938,404.267C514.165,402.714 535.905,396.895 557.18,390.491L692.163,343.442C709.081,338.185 723.539,335.02 740.907,331.893L767.903,328.459C775.635,328.369 782.684,328.466 789.651,332.478C797.742,337.143 802.256,345.804 804.041,354.705C807.431,371.623 803.884,385.181 793.475,398.95C782.009,414.128 766.381,424.626 749.906,433.67C726.928,446.291 701.799,454.938 676.415,461.289C656.325,466.306 634.03,470.341 613.423,472.313L584.176,474.608C575.77,476.512 570.101,479.902 563.179,484.874C560.014,487.146 555.867,491.593 551.93,491.166L541.432,487.941L517.435,478.755L449.943,449.201C427.773,440.084 404.714,433.468 381.461,427.729C374.054,425.901 366.628,424.162 359.205,422.459C351.115,420.603 342.837,418.79 334.465,417.13C315.067,413.283 295.169,410.257 275.965,409.418L267.716,408.699L229.471,408.699L212.973,409.448L203.974,410.168L157.48,414.158L124.484,419.632C114.646,421.409 99.992,425.189 90.739,428.803C86.854,430.318 81.08,432.808 79.88,437.195C78.965,440.569 81.02,443.142 83.27,445.376L97.488,457.442" style="fill:none;fill-rule:nonzero;stroke:black;stroke-width:22px;stroke-linecap:butt;stroke-linejoin:miter;stroke-miterlimit:4;"/>
    </g>
    <g id="Tail" transform="matrix(1.13881,0,0,1.13881,-65.6124,-1.02066)">
        <path d="M649.418,156.73C647.813,162.242 642.414,166.217 638.17,169.786C629.171,177.345 620.254,183.712 610.423,190.101C582.444,208.286 564.574,212.621 535.433,225.287L470.941,257.038C460.3,262.482 438.23,275.575 428.946,282.639C422.984,287.169 416.737,293.626 416.198,301.462C409.058,298.665 404.319,290.821 401.019,284.214C388.174,258.515 399.947,228.369 424.447,214.705C463.142,193.123 502.339,179.482 545.931,171.916C560.929,169.314 576.497,167.581 591.675,166.547L627.671,163.269L641.919,159.7L649.418,156.73Z" style="fill:rgb(5,102,141);"/>
        <path id="Selection1" serif:id="Selection" d="M649.418,156.73C647.813,162.242 642.414,166.217 638.17,169.786C629.171,177.345 620.254,183.712 610.423,190.101C582.444,208.286 564.574,212.621 535.433,225.287L470.941,257.038C460.3,262.482 438.23,275.575 428.946,282.639C422.984,287.169 416.737,293.626 416.198,301.462C409.058,298.665 404.319,290.821 401.019,284.214C388.174,258.515 399.947,228.369 424.447,214.705C463.142,193.123 502.339,179.482 545.931,171.916C560.929,169.314 576.497,167.581 591.675,166.547L627.671,163.269L641.919,159.7L649.418,156.73" style="fill:none;fill-rule:nonzero;stroke:black;stroke-width:0.75px;stroke-linecap:butt;stroke-linejoin:miter;stroke-miterlimit:4;"/>
    </g>
    <g id="Body-Fins" serif:id="Body Fins" transform="matrix(1.13881,0,0,1.13881,-65.6124,-1.02066)">
        <path d="M644.919,156.73C639.917,159.977 630.663,161.32 624.671,162.287L593.925,165.047L575.927,166.547L554.93,169.276C514.608,175.088 476.632,187.071 440.195,205.287C432.973,208.901 424.866,212.538 418.447,217.398C403.022,229.074 394.225,244.507 394.45,263.967C394.533,270.506 396.76,278.38 399.677,284.214C401.214,287.289 402.152,288.204 403.449,291.713C399.017,288.046 395.823,282.684 393.498,277.465C387.469,263.937 383.944,241.68 390.791,227.971C397.465,214.608 407.619,207.424 419.947,199.79C430.078,193.513 441.972,188.084 452.943,183.404C481.762,171.113 507.581,163.832 538.432,158.658L576.677,153.731L582.677,153.731L591.675,152.981L629.171,153.603C634.143,154.106 640.569,154.151 644.919,156.73Z" style="fill:rgb(0,168,150);"/>
        <path d="M646.419,164.979C644.731,170.056 640.652,174.451 637.217,178.478C630.123,186.801 622.459,194.683 614.173,201.822C605.984,208.871 595.777,217.097 586.384,222.498C579.808,226.278 558.92,233.341 544.431,238.365C520.599,246.636 494.84,256.295 472.44,267.799C457.45,275.493 446.276,281.754 432.695,291.991L419.947,302.159C418.56,302.669 418.722,302.527 417.439,302.317C418.351,290.385 428.121,284.049 440.944,275.71L473.19,257.03C495.118,245.602 517.18,234.248 539.932,224.544C560.217,215.89 576.22,210.806 596.175,199.992C605.796,194.78 619.774,185.609 628.421,178.912C632.515,175.74 642.909,166.629 646.419,164.979Z" style="fill:rgb(0,168,150);"/>
        <path d="M855.581,340.376L851.143,347.956C849.845,344.454 851.84,335.043 851.893,330.708C852.178,306.201 844.206,279.452 828.788,260.217C824.829,255.275 818.687,249.254 813.647,245.399C780.982,220.405 740.719,224.222 703.411,234.061C655.672,246.651 617.225,264.942 573.678,287.409C545.294,302.054 516.25,319.497 483.689,321.777L476.19,322.452L469.441,321.837C459.152,320.855 453.228,320.292 443.194,316.963C434.833,314.18 428.871,311.563 421.447,306.711C424.207,306.314 429.621,308.661 432.695,309.434C438.177,310.798 445.781,311.683 451.443,311.931C455.748,312.118 457.18,311.728 461.192,311.338C479.212,309.591 490.611,306.936 507.686,300.675C527.671,293.341 557.255,276.828 575.927,265.767L611.173,245.452C649.388,224.784 680.772,211.518 724.409,206.854L741.657,205.474L749.156,205.474C765.234,205.497 787.528,211.571 801.649,219.205C809.358,223.374 815.89,227.544 822.646,233.161C832.62,241.462 840.982,250.738 847.903,261.717C855.372,273.566 861.619,290.348 861.641,304.462L861.641,314.21C861.581,318.942 860.344,325.451 858.889,329.958C857.952,332.868 856.374,337.864 855.581,340.376Z" style="fill:rgb(0,168,150);"/>
        <path d="M853.154,347.491C851.287,359.572 843.475,371.539 836.778,381.52C829.519,392.341 824.731,400.3 816.01,410.198C779.924,451.188 727.026,479.677 674.165,492.11C659.429,495.583 645.016,497.697 629.921,498.755L620.922,499.437C603.644,499.467 592.53,499.535 575.178,496.745C569.981,495.913 560.749,494.585 556.43,491.938C564.491,485.909 570.513,480.277 580.427,477.007C587.229,474.758 589.358,475.89 595.425,475.313L632.92,471.368C667.341,466.269 708.106,455.905 739.407,440.749C749.643,435.8 762.579,428.578 771.653,421.837L784.401,411.616L797.664,402.441L803.608,397.141C803.608,397.141 816.967,385.788 822.646,381.702L832.644,371.85L847.476,355.723L853.154,347.491Z" style="fill:rgb(0,168,150);"/>
        <path id="Bottom-Tail-Fin" serif:id="Bottom Tail Fin" d="M646.419,164.979C644.731,170.056 640.652,174.451 637.217,178.478C630.123,186.801 622.459,194.683 614.173,201.822C605.984,208.871 595.777,217.097 586.384,222.498C579.808,226.278 558.92,233.341 544.431,238.365C520.599,246.636 494.84,256.295 472.44,267.799C457.45,275.493 446.276,281.754 432.695,291.991L419.947,302.159C418.56,302.669 418.722,302.527 417.439,302.317C418.351,290.385 428.121,284.049 440.944,275.71L473.19,257.03C495.118,245.602 517.18,234.248 539.932,224.544C560.217,215.89 576.22,210.806 596.175,199.992C605.796,194.78 619.774,185.609 628.421,178.912C632.515,175.74 642.909,166.629 646.419,164.979" style="fill:none;fill-rule:nonzero;stroke:black;stroke-width:0.75px;stroke-linecap:butt;stroke-linejoin:miter;stroke-miterlimit:4;"/>
        <path id="Top-Tail-Fin" serif:id="Top Tail Fin" d="M644.919,156.73C639.917,159.977 630.663,161.32 624.671,162.287L593.925,165.047L575.927,166.547L554.93,169.276C514.608,175.088 476.632,187.071 440.195,205.287C432.973,208.901 424.866,212.538 418.447,217.398C403.022,229.074 394.225,244.507 394.45,263.967C394.533,270.506 396.76,278.38 399.677,284.214C401.214,287.289 402.152,288.204 403.449,291.713C399.017,288.046 395.823,282.684 393.498,277.465C387.469,263.937 383.944,241.68 390.791,227.971C397.465,214.608 407.619,207.424 419.947,199.79C430.078,193.513 441.972,188.084 452.943,183.404C481.762,171.113 507.581,163.832 538.432,158.658L576.677,153.731L582.677,153.731L591.675,152.981L629.171,153.603C634.143,154.106 640.569,154.151 644.919,156.73" style="fill:none;fill-rule:nonzero;stroke:black;stroke-width:0.75px;stroke-linecap:butt;stroke-linejoin:miter;stroke-miterlimit:4;"/>
        <path id="Top-Back-Fin" serif:id="Top Back Fin" d="M855.581,340.376L851.143,347.956C849.845,344.454 851.84,335.043 851.893,330.708C852.178,306.201 844.206,279.452 828.788,260.217C824.829,255.275 818.687,249.254 813.647,245.399C780.982,220.405 740.719,224.222 703.411,234.061C655.672,246.651 617.225,264.942 573.678,287.409C545.294,302.054 516.25,319.497 483.689,321.777L476.19,322.452L469.441,321.837C459.152,320.855 453.228,320.292 443.194,316.963C434.833,314.18 428.871,311.563 421.447,306.711C424.207,306.314 429.621,308.661 432.695,309.434C438.177,310.798 445.781,311.683 451.443,311.931C455.748,312.118 457.18,311.728 461.192,311.338C479.212,309.591 490.611,306.936 507.686,300.675C527.671,293.341 557.255,276.828 575.927,265.767L611.173,245.452C649.388,224.784 680.772,211.518 724.409,206.854L741.657,205.474L749.156,205.474C765.234,205.497 787.528,211.571 801.649,219.205C809.358,223.374 815.89,227.544 822.646,233.161C832.62,241.462 840.982,250.738 847.903,261.717C855.372,273.566 861.619,290.348 861.641,304.462L861.641,314.21C861.581,318.942 860.344,325.451 858.889,329.958C857.952,332.868 856.374,337.864 855.581,340.376" style="fill:none;fill-rule:nonzero;stroke:black;stroke-width:0.75px;stroke-linecap:butt;stroke-linejoin:miter;stroke-miterlimit:4;"/>
        <path id="Top-Fin" serif:id="Top Fin" d="M853.154,347.491C851.287,359.572 843.475,371.539 836.778,381.52C829.519,392.341 824.731,400.3 816.01,410.198C779.924,451.188 727.026,479.677 674.165,492.11C659.429,495.583 645.016,497.697 629.921,498.755L620.922,499.437C603.644,499.467 592.53,499.535 575.178,496.745C569.981,495.913 560.749,494.585 556.43,491.938C564.491,485.909 570.513,480.277 580.427,477.007C587.229,474.758 589.358,475.89 595.425,475.313L632.92,471.368C667.341,466.269 708.106,455.905 739.407,440.749C749.643,435.8 762.579,428.578 771.653,421.837L784.401,411.616L797.664,402.441L803.608,397.141C803.608,397.141 816.967,385.788 822.646,381.702L832.644,371.85L847.476,355.723L853.154,347.491" style="fill:none;fill-rule:nonzero;stroke:black;stroke-width:0.75px;stroke-linecap:butt;stroke-linejoin:miter;stroke-miterlimit:4;"/>
    </g>
    <g id="Side-2" serif:id="Side 2" transform="matrix(1.13881,0,0,1.13881,-65.6124,-1.02066)">
        <path d="M791.9,404.199C797.607,394.045 802.189,391.046 805.391,377.952C807.596,369.508 807.333,362.384 805.391,353.955C801.342,337.51 791.525,327.169 773.902,326.959C766.013,326.869 740.682,330.551 731.908,332.021C711.683,335.425 692.073,341.739 672.665,348.204L569.178,385.204C547.131,392.546 509.553,403.179 486.689,403.449C469.336,403.652 457.045,403.599 440.195,397.93C405.249,386.186 377.382,359.37 368.301,323.209C366.749,317.045 365.279,310.078 365.204,303.712L365.204,289.464C365.226,276.003 370.731,261.027 379.002,250.468C381.439,247.356 382.309,245.474 385.451,242.969C385.451,255.973 387.881,269.651 394.068,281.215C398.987,290.416 404.582,294.855 412.448,301.095C417.487,305.099 419.22,307.139 425.196,310.558C441.222,319.715 456.61,322.429 474.69,323.404L480.689,323.404C492.283,322.737 501.949,320.622 512.935,316.963C534.405,309.801 556.01,298.215 575.927,287.446L594.675,278.027C626.134,262.189 646.719,253.371 680.164,242.219C697.78,236.348 727.123,228.189 745.406,227.971C761.312,227.791 776.04,228.601 791.15,234.285C833.385,250.183 850.595,290.491 850.393,332.958C850.37,336.918 849.133,349.096 847.656,352.456C846.328,355.5 842.556,359.467 840.277,361.987L820.397,380.982L804.591,394.329C800.027,397.928 797.704,401.739 791.9,404.199Z" style="fill:rgb(2,128,144);"/>
        <path id="Selection2" serif:id="Selection" d="M791.9,404.199C797.607,394.045 802.189,391.046 805.391,377.952C807.596,369.508 807.333,362.384 805.391,353.955C801.342,337.51 791.525,327.169 773.902,326.959C766.013,326.869 740.682,330.551 731.908,332.021C711.683,335.425 692.073,341.739 672.665,348.204L569.178,385.204C547.131,392.546 509.553,403.179 486.689,403.449C469.336,403.652 457.045,403.599 440.195,397.93C405.249,386.186 377.382,359.37 368.301,323.209C366.749,317.045 365.279,310.078 365.204,303.712L365.204,289.464C365.226,276.003 370.731,261.027 379.002,250.468C381.439,247.356 382.309,245.474 385.451,242.969C385.451,255.973 387.881,269.651 394.068,281.215C398.987,290.416 404.582,294.855 412.448,301.095C417.487,305.099 419.22,307.139 425.196,310.558C441.222,319.715 456.61,322.429 474.69,323.404L480.689,323.404C492.283,322.737 501.949,320.622 512.935,316.963C534.405,309.801 556.01,298.215 575.927,287.446L594.675,278.027C626.134,262.189 646.719,253.371 680.164,242.219C697.78,236.348 727.123,228.189 745.406,227.971C761.312,227.791 776.04,228.601 791.15,234.285C833.385,250.183 850.595,290.491 850.393,332.958C850.37,336.918 849.133,349.096 847.656,352.456C846.328,355.5 842.556,359.467 840.277,361.987L820.397,380.982L804.591,394.329C800.027,397.928 797.704,401.739 791.9,404.199" style="fill:none;fill-rule:nonzero;stroke:black;stroke-width:0.75px;stroke-linecap:butt;stroke-linejoin:miter;stroke-miterlimit:4;"/>
    </g>
    <g id="Side-1" serif:id="Side 1" transform="matrix(1.13881,0,0,1.13881,-65.6124,-1.02066)">
        <path d="M840.679,248.733C857.6,253.424 874.382,280.195 882.954,299.962C902.901,345.969 901.521,398.312 886.141,445.444C874.225,481.957 853.452,517.712 826.358,545.061C782.481,589.336 726.096,609.538 665.916,619.482C649.681,622.167 633.55,623.614 617.172,624.739L609.812,625.259L585.676,625.421L576.677,624.739C555.41,623.276 534.863,618.972 514.435,612.883C482.962,603.501 444.154,585.811 413.948,571.945L374.203,554.225L354.705,546.246L315.71,533.4L300.712,529.591C297.945,528.991 294.255,528.481 292.538,526.141C290.303,523.547 290.596,519.28 292.538,516.82C294.278,514.975 297.832,513.04 299.962,511.668C304.057,509.028 307.904,505.834 312.711,504.686C313.723,515.815 323.517,519.482 332.958,522.249C346.284,526.164 361.972,528.443 375.703,525.526C382.092,524.169 390.131,520.689 393.963,515.185C401.132,504.881 384.822,497.772 377.202,495.478C363.622,491.383 346.771,489.598 332.958,493.378C325.601,495.388 321.567,497.757 314.96,500.937C319.977,488.248 340.39,488.923 351.706,488.938C366.906,488.961 384.417,493.43 397.45,501.274L429.696,524.544C440.667,531.833 451.286,536.287 464.192,538.882C467.124,539.475 475.718,540.727 478.44,540.607C499.617,539.67 517.097,527.064 532.433,513.573L547.431,499.977C549.178,498.447 552.148,495.358 554.18,494.563C556.64,493.595 566.059,496.265 569.178,496.887C577.96,498.642 593.415,500.922 602.174,500.937L620.172,500.937C635.912,500.914 661.694,496.46 677.165,492.59C729.561,479.497 778.852,452.77 815.275,412.448C827.093,399.355 835.282,388.871 844.123,373.685L849.742,362.945L855.905,343.457C860.854,328.669 863.321,321.08 863.141,305.212C862.991,292.373 857.937,276.276 851.742,265.125L840.679,248.733Z" style="fill:rgb(5,102,141);"/>
        <path id="Selection3" serif:id="Selection" d="M840.679,248.733C857.6,253.424 874.382,280.195 882.954,299.962C902.901,345.969 901.521,398.312 886.141,445.444C874.225,481.957 853.452,517.712 826.358,545.061C782.481,589.336 726.096,609.538 665.916,619.482C649.681,622.167 633.55,623.614 617.172,624.739L609.812,625.259L585.676,625.421L576.677,624.739C555.41,623.276 534.863,618.972 514.435,612.883C482.962,603.501 444.154,585.811 413.948,571.945L374.203,554.225L354.705,546.246L315.71,533.4L300.712,529.591C297.945,528.991 294.255,528.481 292.538,526.141C290.303,523.547 290.596,519.28 292.538,516.82C294.278,514.975 297.832,513.04 299.962,511.668C304.057,509.028 307.904,505.834 312.711,504.686C313.723,515.815 323.517,519.482 332.958,522.249C346.284,526.164 361.972,528.443 375.703,525.526C382.092,524.169 390.131,520.689 393.963,515.185C401.132,504.881 384.822,497.772 377.202,495.478C363.622,491.383 346.771,489.598 332.958,493.378C325.601,495.388 321.567,497.757 314.96,500.937C319.977,488.248 340.39,488.923 351.706,488.938C366.906,488.961 384.417,493.43 397.45,501.274L429.696,524.544C440.667,531.833 451.286,536.287 464.192,538.882C467.124,539.475 475.718,540.727 478.44,540.607C499.617,539.67 517.097,527.064 532.433,513.573L547.431,499.977C549.178,498.447 552.148,495.358 554.18,494.563C556.64,493.595 566.059,496.265 569.178,496.887C577.96,498.642 593.415,500.922 602.174,500.937L620.172,500.937C635.912,500.914 661.694,496.46 677.165,492.59C729.561,479.497 778.852,452.77 815.275,412.448C827.093,399.355 835.282,388.871 844.123,373.685L849.742,362.945L855.905,343.457C860.854,328.669 863.321,321.08 863.141,305.212C862.991,292.373 857.937,276.276 851.742,265.125L840.679,248.733" style="fill:none;fill-rule:nonzero;stroke:black;stroke-width:0.75px;stroke-linecap:butt;stroke-linejoin:miter;stroke-miterlimit:4;"/>
    </g>
    <g id="Side-Fin" serif:id="Side Fin" transform="matrix(1.13881,0,0,1.13881,-65.6124,-1.02066)">
        <path d="M342.707,492.905C354.563,491.796 373.183,494.203 383.952,499.272C388.961,501.627 395.118,504.911 394.278,511.436C393.723,515.8 389.778,518.537 386.201,520.509C377.75,525.166 367.889,525.789 358.455,525.684C347.716,525.556 330.288,521.349 320.96,516.085C317.165,513.948 311.901,507.296 314.953,502.909C315.92,501.529 320.075,499.67 321.709,498.882C324.874,497.352 326.666,496.767 329.958,495.688C334.81,494.09 337.727,493.663 342.707,492.905Z" style="fill:rgb(0,168,150);"/>
        <path id="Selection4" serif:id="Selection" d="M342.707,492.905C354.563,491.796 373.183,494.203 383.952,499.272C388.961,501.627 395.118,504.911 394.278,511.436C393.723,515.8 389.778,518.537 386.201,520.509C377.75,525.166 367.889,525.789 358.455,525.684C347.716,525.556 330.288,521.349 320.96,516.085C317.165,513.948 311.901,507.296 314.953,502.909C315.92,501.529 320.075,499.67 321.709,498.882C324.874,497.352 326.666,496.767 329.958,495.688C334.81,494.09 337.727,493.663 342.707,492.905" style="fill:none;fill-rule:nonzero;stroke:black;stroke-width:0.75px;stroke-linecap:butt;stroke-linejoin:miter;stroke-miterlimit:4;"/>
    </g>
    <g id="Neck" transform="matrix(1.13881,0,0,1.13881,-65.6124,-1.02066)">
        <path d="M255.128,411.273L249.836,410.04L269.216,410.198L278.215,410.881C294.915,412.051 311.233,414.405 327.709,417.382C361.162,423.412 403.787,433.858 435.695,445.211C461.859,454.525 486.681,467.131 512.185,478.012C523.824,482.977 540.457,490.221 552.68,492.688C550.611,496.482 545.489,500.487 542.182,503.397L528.683,515.62C521.094,522.024 510.078,530.063 500.937,533.925C493.558,537.037 484.221,539.355 476.19,539.175C461.544,538.837 443.412,532.163 431.196,524.289C417.735,515.605 407.709,505.271 392.95,497.547C377.397,489.418 360,487.236 342.707,487.439C335.8,487.521 324.942,489.411 319.46,493.73C312.096,499.52 316.67,500.112 306.711,506.186L298.462,511.436C290.963,516.01 287.544,518.065 290.963,527.184L266.093,522.182L278.334,517.635C287.49,512.941 295.313,505.421 300.457,496.437C312.366,475.665 312.846,445.931 294.645,428.324C282.249,416.325 270.88,413.835 255.128,411.273Z" style="fill:rgb(2,128,144);"/>
        <path id="Selection5" serif:id="Selection" d="M255.128,411.273L249.836,410.04L269.216,410.198L278.215,410.881C294.915,412.051 311.233,414.405 327.709,417.382C361.162,423.412 403.787,433.858 435.695,445.211C461.859,454.525 486.681,467.131 512.185,478.012C523.824,482.977 540.457,490.221 552.68,492.688C550.611,496.482 545.489,500.487 542.182,503.397L528.683,515.62C521.094,522.024 510.078,530.063 500.937,533.925C493.558,537.037 484.221,539.355 476.19,539.175C461.544,538.837 443.412,532.163 431.196,524.289C417.735,515.605 407.709,505.271 392.95,497.547C377.397,489.418 360,487.236 342.707,487.439C335.8,487.521 324.942,489.411 319.46,493.73C312.096,499.52 316.67,500.112 306.711,506.186L298.462,511.436C290.963,516.01 287.544,518.065 290.963,527.184L266.093,522.182L278.334,517.635C287.49,512.941 295.313,505.421 300.457,496.437C312.366,475.665 312.846,445.931 294.645,428.324C282.249,416.325 270.88,413.835 255.128,411.273Z" style="fill:none;fill-rule:nonzero;stroke:black;stroke-width:0.75px;stroke-linecap:butt;stroke-linejoin:miter;stroke-miterlimit:4;"/>
    </g>
    <g id="Mouth" transform="matrix(1.13881,0,0,1.13881,-65.6124,-1.02066)">
        <path d="M113.986,477.69C109.42,476.659 104.691,475.384 100.298,474.037C97.424,473.156 94.568,472.209 91.744,471.178C90.883,470.864 90.025,470.541 89.171,470.21C87.842,469.695 86.516,469.168 85.226,468.56C82.276,467.169 79.222,465.651 76.953,463.229C76.03,462.242 75.224,461.061 74.991,459.692C80.547,458.695 93.363,458.53 98.238,461.177C101.572,462.995 104.128,465.973 106.64,468.725C108.826,471.118 113.986,477.69 113.986,477.69Z" style="fill:rgb(255,105,120);"/>
        <path d="M113.986,477.69C109.42,476.659 104.691,475.384 100.298,474.037C97.424,473.156 94.568,472.209 91.744,471.178C90.883,470.864 90.025,470.541 89.171,470.21C87.842,469.695 86.516,469.168 85.226,468.56C82.276,467.169 79.222,465.651 76.953,463.229C76.03,462.242 75.224,461.061 74.991,459.692C80.547,458.695 93.363,458.53 98.238,461.177C101.572,462.995 104.128,465.973 106.64,468.725C108.826,471.118 113.986,477.69 113.986,477.69Z" style="fill:none;stroke:black;stroke-width:0.7px;stroke-linecap:butt;stroke-linejoin:miter;stroke-miterlimit:4;"/>
    </g>
    <g id="Head" transform="matrix(1.13881,0,0,1.13881,-65.6124,-1.02066)">
        <path d="M238.47,410.213L244.279,410.501L248.267,411.061C248.267,411.061 262.225,413.263 266.966,415.013C280.037,417.937 291.661,424.537 299.385,435.695C304.252,442.729 307.461,453.392 307.461,461.942L307.461,467.941C307.431,485.271 298.402,502.647 284.214,512.605C272.883,520.562 261.642,522.092 248.219,521.934C232.321,521.747 203.434,515.882 187.476,512.095C163.307,506.366 138.886,500.527 115.485,492.103C103.299,487.716 93.131,483.502 83.24,474.728C79.123,471.068 69.209,458.989 73.491,462.692C84.257,472.003 103.237,477.274 120.137,480.911L126.112,482.197C131.736,483.884 134.561,485.905 140.217,482.197C149.081,476.385 148.759,461.619 141.657,454.518C138.14,451.008 133.116,449.711 128.234,450.011C124.132,450.266 116.985,452.515 113.236,454.278C110.221,455.695 106.089,458.44 102.737,457.87C98.8,457.195 86.532,446.831 83.599,443.622C81.485,441.304 80.187,438.665 82.19,435.77C83.659,433.648 86.929,432.118 89.239,431.031C94.121,428.736 102.617,426.284 107.986,424.769C133.813,417.487 166.652,414.218 193.476,412.381L215.223,410.948L224.972,410.213L238.47,410.213Z" style="fill:rgb(5,102,141);"/>
        <path d="M248.267,411.061L244.279,410.501L238.47,410.213L224.972,410.213L215.223,410.948L193.476,412.381C166.652,414.218 133.813,417.487 107.986,424.769C102.617,426.284 94.121,428.736 89.239,431.031C86.929,432.118 83.659,433.648 82.19,435.77C80.187,438.665 81.485,441.304 83.599,443.622C86.532,446.831 98.8,457.195 102.737,457.87C106.089,458.44 110.221,455.695 113.236,454.278C116.985,452.515 124.132,450.266 128.234,450.011C133.116,449.711 138.14,451.008 141.657,454.518C148.759,461.619 149.081,476.385 140.217,482.197C134.561,485.905 131.736,483.884 126.112,482.197L120.137,480.911C103.237,477.274 84.257,472.003 73.491,462.692C69.209,458.989 79.123,471.068 83.24,474.728C93.131,483.502 103.299,487.716 115.485,492.103C138.886,500.527 163.307,506.366 187.476,512.095C203.434,515.882 232.321,521.747 248.219,521.934C261.642,522.092 272.883,520.562 284.214,512.605C298.402,502.647 307.431,485.271 307.461,467.941L307.461,461.942C307.461,453.392 304.252,442.729 299.385,435.695C291.661,424.537 280.037,417.937 266.966,415.013C262.225,413.263 248.267,411.061 248.267,411.061" style="fill:none;stroke:black;stroke-width:0.7px;stroke-linecap:butt;stroke-linejoin:miter;stroke-miterlimit:4;"/>
    </g>
    <g id="Eye-back" serif:id="Eye back" transform="matrix(1.13881,0,0,1.13881,-65.6124,-1.02066)">
        <path d="M126.734,451.443C125.324,453.303 123.622,455.065 123.202,457.442C122.122,463.569 130.041,471.856 137.908,466.449C141.582,463.922 141.695,460.712 141.732,456.692C149.644,464.716 145.744,484.926 131.983,482.699C118.725,480.547 109.299,464.551 101.987,460.442L107.986,457.96C115.665,454.525 118.208,453.048 126.734,451.443Z" style="fill:rgb(2,128,144);"/>
        <path id="Selection6" serif:id="Selection" d="M126.734,451.443C125.324,453.303 123.622,455.065 123.202,457.442C122.122,463.569 130.041,471.856 137.908,466.449C141.582,463.922 141.695,460.712 141.732,456.692C149.644,464.716 145.744,484.926 131.983,482.699C118.725,480.547 109.299,464.551 101.987,460.442L107.986,457.96C115.665,454.525 118.208,453.048 126.734,451.443" style="fill:none;fill-rule:nonzero;stroke:black;stroke-width:0.75px;stroke-linecap:butt;stroke-linejoin:miter;stroke-miterlimit:4;"/>
    </g>
    <g id="Eye" transform="matrix(1.13881,0,0,1.13881,-65.6124,-1.02066)">
        <path d="M129.734,452.448C133.101,452.066 135.965,451.968 138.523,454.615C142.805,459.032 139.94,465.736 134.233,466.884C125.662,468.608 119.715,455.448 129.734,452.448Z" style="fill:rgb(240,243,189);"/>
        <path id="Selection7" serif:id="Selection" d="M129.734,452.448C133.101,452.066 135.965,451.968 138.523,454.615C142.805,459.032 139.94,465.736 134.233,466.884C125.662,468.608 119.715,455.448 129.734,452.448" style="fill:none;fill-rule:nonzero;stroke:black;stroke-width:0.75px;stroke-linecap:butt;stroke-linejoin:miter;stroke-miterlimit:4;"/>
    </g>
</svg>
